<svg width="19" height="19" viewBox="0 0 19 19" fill="none" xmlns="http://www.w3.org/2000/svg">
<path d="M3.38723 1.18449C3.87233 0.874163 4.44908 0.739342 5.02148 0.802472C5.59388 0.865601 6.12739 1.12287 6.5332 1.53146L6.67411 1.68665L7.98219 3.24229C8.37919 3.71447 8.62861 4.29295 8.69944 4.90577C8.77028 5.51859 8.65938 6.13871 8.38056 6.68901L8.26471 6.89473L7.33478 8.4327C7.16807 8.71309 7.5758 9.49985 8.80498 10.6941C9.91118 11.7687 10.685 12.1976 10.9913 12.1461L11.0434 12.1314L11.1042 12.101L13.3738 10.6364C13.6787 10.4393 14.034 10.3341 14.3971 10.3336C14.7602 10.3331 15.1157 10.4372 15.4212 10.6334L15.5711 10.7415L17.8622 12.5541C18.3112 12.9094 18.6259 13.407 18.7543 13.965C18.8828 14.523 18.8174 15.1081 18.5689 15.624L18.4643 15.8186L17.984 16.628C17.5524 17.354 16.9214 17.9408 16.166 18.3187C15.4107 18.6965 14.5627 18.8495 13.7229 18.7595C11.1091 18.479 8.3656 16.9231 5.47901 14.119C2.58638 11.3074 0.949537 8.60603 0.598106 5.99466C0.491988 5.20524 0.601652 4.40183 0.915452 3.66973C1.22925 2.93763 1.73547 2.30419 2.38035 1.83668L2.59231 1.69276L3.38723 1.18449Z" fill="#F8F8F8"/>
</svg>
