<svg width="368" height="316" viewBox="0 0 368 316" fill="none" xmlns="http://www.w3.org/2000/svg">
<path d="M297.777 10.5204C260.205 13.3518 203.814 53.5344 225.215 138.01C246.616 222.485 197.647 236.039 170.487 232.257" stroke="white"/>
<circle cx="12.0646" cy="12.0646" r="11.5646" transform="matrix(-1 0 0 1 154.646 218.386)" stroke="white"/>
<path d="M112.969 230.451C82.9899 227.709 23.2518 240.98 24.1293 316" stroke="white"/>
<path d="M211.131 187.676C211.496 198.826 203.782 220.141 170.001 216.192" stroke="white"/>
<path d="M28.2824 95.8926C27.2826 96.4699 27.2826 97.9129 28.2824 98.4902L57.9436 115.615C58.9436 116.193 60.1936 115.471 60.1936 114.316L60.1936 80.0664C60.1936 78.9117 58.9436 78.1902 57.9436 78.7676L28.2824 95.8926Z" stroke="#A693FF" stroke-width="3"/>
<path d="M4.75 50.6074C3.08343 51.5697 3.08337 53.9753 4.75 54.9375L23.7178 65.8887C25.3844 66.8509 27.4676 65.648 27.4678 63.7236L27.4678 41.8213C27.4678 39.8968 25.3844 38.694 23.7178 39.6562L4.75 50.6074Z" stroke="white"/>
</svg>
